<svg width="1920" height="385" viewBox="0 0 1920 385" fill="none" xmlns="http://www.w3.org/2000/svg">        
	<path id="path" d="M8.1,192.2c0,0,133.2-55.4,198.1-62.9c64.9-7.5,90.9-8.4,95.1,32.5c0.1,1.2-28.7,18.2-31,20.1
		c-12.3,10.2-27,24.9-26.3,42.2c1.4,31.2,45.8,48.5,71.9,49.8c23.8,1.2,48.3-8.4,63.3-26.8c53.1-65.5-56.3-99.6-46.3-162.6
		c5.2-32.9,37.9-48.8,67.5-55.9c24.7-5.9,52.4-8.1,77.8-6.9c16.9,0.8,39.3,8.2,22.4,27.2c-20.3,22.8-65.4,55.2-34.1,64.1
		c31.3,8.9,62.7-16.8,63.8-27.8c1.1-11-19.5-28.2-32,5.9c-18.1,48.9-38.2,97-58.1,145.2c-0.5,1.2-1,2.4-0.8,3.7
		c0.2,1.8,1.7,3.2,3.2,4.2c20.4,12.4,46.1-18.9,57.3-31.7c18.4-20.9,34.1-44.3,49-67.8c0,0-34.4,70.1-37.6,99.9
		c1.3-11.9,16.5-30.8,22.7-41.1c4.7-7.7,55.6-84.7,65.3-61.6c1.4,3.4,0.6,7.2-0.7,10.6c-10.4,27-20.9,58.2-22.3,87.4
		c0.4-9.4,13.2-25.8,17.8-33.8c8.9-15.4,47.3-85,72.4-61.5c0,0-44.1,97-17.2,98.9c23.8,1.7,41.4-20.1,53.2-38
		c22.9-34.8,42.3-74.2,74-102.2c43.1-38.2,97.9-57.3,153.4-69.1c28.7-6.1,57.7-10.1,86.9-12.6c0,0-132.4,16.7-160.8,123.1
		s-46.8,130,0,126.6c46.8-3.4,139.9-17.4,82.3-27.6c-57.6-10.2-205.2,30.7-159.3-53.9c45.8-84.4,184.6-56.8,185.3-56.7
		c-3.2-0.6-24.3,16.3-24.3,19.6c0.1,5.8,8.7,2.1,13,1c17.7-4.5,33.7-12.7,52.2-14.7c1.4-0.2,2.9-0.3,4.2,0.4c1.9,1,2.5,3.6,1.9,5.7
		s-2,3.8-3.3,5.6c-14.8,19.2-22.3,46.2-25.9,69.9c-3.1,20.8,4.5,32.2,24.9,19.4c54-34.1,73.5-103.7,73.5-103.7
		s-30.6,108.3-30.7,108.4c-0.3,1,13.9-0.3,14.6-0.4c12.7-2.8,24-11.3,32.6-20.6c22.2-23.9,39.1-54.9,51.2-84.9
		c-12.9,32.5-33.3,65-32.4,101.3c-0.4-18,14.7-44.5,24.5-59c14.4-21.2,36.6-36.7,62.9-36.2c-2.3,0-10.8,25.3-12,28.4
		c-5.7,15-9.1,30.8-10,46.9c-0.5,8.7,1,19.5,9.1,22.8c4.5,1.9,9.8,0.6,14.3-1.2c8.3-3.3,15.8-8.5,21.8-15.1
		c17.9-19.6,25-53.6,56.6-56c19.8-1.5,36.8,12.7,52.8,22.3c12.5,7.5,24.7,15.8,36.8,24c-11.2-7.6-31.2-8.3-44-9.2
		c-21.7-1.6-41.3,3.8-57.4,19c-15.2,14.4-24.4,34.1-29.2,54.5c-3.1,13-4.4,26.9-0.4,39.7c8.2,26,39.5,44.8,66.1,43.8
		c46.2-1.8,82.7-49.9,106.4-85c47-69.8,80.6-151.6,109-230.5c0,0-11.7-56.8-67-9.3c-55.3,47.5-83.5,84.6-83.5,84.6
		s142.6-181.6,153.8-63.9c10,106.1,59.5,43,59.5,18.9s-55.6,36.2-78.4,151.4c-0.9,4.6-11,40.4-4.9,44.1c4.7,2.8,12.2-12.2,14.1-15.2
		c20.7-32.7,45.2-87.9,90.2-91.8c13.2-1.1,26.3,4.1,37.3,11.6c10.9,7.5,20.1,17.3,29.5,26.7c38.8,38.4,89.7,75.4,147.3,67.7
		c36.2-4.9,91.1-33.7,91.1-33.7"/>
</svg>